<svg width="82" height="93" viewBox="0 0 82 93" fill="none" xmlns="http://www.w3.org/2000/svg">
<path d="M65.2439 35.8672C60.9367 48.2014 67.6457 48.5712 72.372 57.3262C75.6188 61.4275 65.8479 62.4762 69.1088 64.2155C72.6412 66.4393 75.0148 68.4291 73.5565 72.2939C71.1945 79.12 71.9178 81.7231 72.0653 83.7948C72.132 84.81 71.8889 85.8216 71.368 86.6957C70.8472 87.5698 70.0732 88.2651 69.1485 88.6896C50.7655 97.07 32.1904 83.2517 27.9721 74.066C9.8723 80.5526 -3.75407 46.1554 21.8085 58.9719" stroke="#010101" stroke-width="2.07638" stroke-linecap="round" stroke-linejoin="round"/>
<path d="M74.0218 69.5995C74.0218 69.5995 74.1529 61.2869 74.0218 59.0982C73.8907 56.9095 70.9154 51.8695 71.2947 49.8704C71.6739 47.8712 72.1514 43.8777 70.4402 38.1659C68.729 32.4541 62.7363 23.1396 62.7363 23.1396" stroke="#010101" stroke-width="2.07638" stroke-linecap="round" stroke-linejoin="round"/>
<path d="M58.2196 43.2364C58.2196 43.2364 48.1655 42.7472 43.2168 46.3756" stroke="#010101" stroke-width="2.07638" stroke-linecap="round" stroke-linejoin="round"/>
<path d="M51.3203 47.3494V51.8064" stroke="#010101" stroke-width="2.07638" stroke-linecap="round" stroke-linejoin="round"/>
<path d="M73.0615 73.8342C73.0615 73.8342 63.3562 74.3211 57.8457 71.4675" stroke="#010101" stroke-width="2.07638" stroke-linecap="round" stroke-linejoin="round"/>
<path d="M68.4092 32.2599C107.907 -12.5941 37.2168 -9.98164 10.5586 56.2845" stroke="#010101" stroke-width="2.07638" stroke-linecap="round" stroke-linejoin="round"/>
<path d="M7.96149 58.8056C7.96149 58.8056 1.53104 46.8014 2.02732 44.7906C2.52359 42.7798 10.5599 18.5655 10.5599 18.5655C15.7661 14.6188 28.9125 4.20176 37.4521 7.15129L46.9866 10.1125" stroke="#010101" stroke-width="2.07638" stroke-linecap="round" stroke-linejoin="round"/>
<path d="M10.5684 18.5657L25.4097 30.1929" stroke="#010101" stroke-width="2.07638" stroke-linecap="round" stroke-linejoin="round"/>
<path d="M19.6631 63.5319C19.6631 63.5319 17.9144 60.5543 15.0398 60.889C12.1652 61.2238 12.1348 64.1663 12.1348 64.1663" stroke="#010101" stroke-width="2.07638" stroke-linecap="round" stroke-linejoin="round"/>
<path d="M18.5664 62.2141C18.5664 62.2141 16.3917 65.3486 17.52 67.4928" stroke="#010101" stroke-width="2.07638" stroke-linecap="round" stroke-linejoin="round"/>
<path d="M64.168 45.1113C64.168 45.1113 67.8923 41.4338 71.2468 41.4712" stroke="#010101" stroke-width="2.07638" stroke-linecap="round" stroke-linejoin="round"/>
<path d="M68.8438 45.6545V48.3513" stroke="#010101" stroke-width="2.07638" stroke-linecap="round" stroke-linejoin="round"/>
<path d="M25.409 30.1929L30.8071 48.3512L28.1081 54.5663L26.9587 60.8657L21.8087 58.9719L18.5666 56.7785L11.6445 55.299L11.9395 53.0166L25.409 30.1929Z" fill="black" stroke="#010101" stroke-width="2.07638" stroke-linecap="round" stroke-linejoin="round"/>
<path d="M35.707 18.905L37.8115 22.1495L36.7581 25.6328L40.8547 25.1599L44.0102 21.6766L44.3052 19.7875L46.9902 23.9122L49.7946 25.1599L51.8031 28.2288L54.3991 31.3586L55.9347 27.5195L60.1156 24.9492L62.7374 23.1397L63.3718 24.151L68.4094 32.2599L78.1007 18.2613L80.0694 11.5663L79.3414 6.63169L75.5351 3.08054L65.0221 2.46021L39.6842 15.4335L35.707 18.905Z" fill="black" stroke="#010101" stroke-width="2.07638" stroke-linecap="round" stroke-linejoin="round"/>
<path d="M36.5123 56.2847L29.6465 64.1641" stroke="#010101" stroke-width="2.07638" stroke-linecap="round" stroke-linejoin="round"/>
<path d="M37.9842 62.5161L30.8047 69.5997" stroke="#010101" stroke-width="2.07638" stroke-linecap="round" stroke-linejoin="round"/>
<path d="M38.5956 70.5291L33.6914 74.6959" stroke="#010101" stroke-width="2.07638" stroke-linecap="round" stroke-linejoin="round"/>
<path d="M36.1465 78.8649L40.8564 74.6958" stroke="#010101" stroke-width="2.07638" stroke-linecap="round" stroke-linejoin="round"/>
<path d="M43.2175 79.5999L41.5391 82.5424" stroke="#010101" stroke-width="2.07638" stroke-linecap="round" stroke-linejoin="round"/>
<path d="M46.9941 86.2225L48.5298 81.0725" stroke="#010101" stroke-width="2.07638" stroke-linecap="round" stroke-linejoin="round"/>
<path d="M53.1882 82.5425L52.4531 87.6925" stroke="#010101" stroke-width="2.07638" stroke-linecap="round" stroke-linejoin="round"/>
<path d="M57.8281 83.6475L58.2214 87.6925" stroke="#010101" stroke-width="2.07638" stroke-linecap="round" stroke-linejoin="round"/>
<path d="M62.2617 82.5425L65.4407 87.6925" stroke="#010101" stroke-width="2.07638" stroke-linecap="round" stroke-linejoin="round"/>
<path d="M66.9199 80.459L69.7407 83.6473" stroke="#010101" stroke-width="2.07638" stroke-linecap="round" stroke-linejoin="round"/>
</svg>
